<svg width="11" height="11" viewBox="0 0 11 11" fill="none" xmlns="http://www.w3.org/2000/svg">
<path fill-rule="evenodd" clip-rule="evenodd" d="M0.173757 10.286C-0.057919 10.0543 -0.057919 9.6787 0.173757 9.44711L8.05936 1.56144H2.9661C2.63848 1.56144 2.37288 1.29584 2.37288 0.96822C2.37288 0.640596 2.63848 0.375 2.9661 0.375H9.49152C9.64884 0.375 9.79975 0.437502 9.91104 0.548754C10.0222 0.660006 10.0847 0.810886 10.0847 0.96822V7.49365C10.0847 7.82127 9.81909 8.08686 9.49152 8.08686C9.16394 8.08686 8.8983 7.82127 8.8983 7.49365V2.40038L1.01269 10.286C0.781024 10.5176 0.405421 10.5176 0.173757 10.286Z" fill="#6B7280"/>
</svg>
