<svg width="13" height="13" viewBox="0 0 13 13" fill="none" xmlns="http://www.w3.org/2000/svg">
<g clip-path="url(#clip0_5016_601)">
<path d="M6.63003 2.36089C8.77378 2.36089 10.5189 4.10603 10.5189 6.24978C10.5189 8.39353 8.77378 10.1387 6.63003 10.1387C4.48628 10.1387 2.74114 8.39353 2.74115 6.24978C2.74115 4.10603 4.48628 2.36089 6.63003 2.36089ZM6.63003 1.38867C3.9467 1.38867 1.76892 3.56645 1.76892 6.24978C1.76892 8.93312 3.9467 11.1109 6.63003 11.1109C9.31337 11.1109 11.4912 8.93312 11.4912 6.24978C11.4912 3.56645 9.31337 1.38867 6.63003 1.38867ZM7.11614 6.24978V4.30534H6.14392V6.24978H4.68559L6.63003 8.19423L8.57448 6.24978H7.11614Z" fill="#40C4AA"/>
</g>
<defs>
<clipPath id="clip0_5016_601">
<rect width="12" height="12" fill="white" transform="translate(0.630005 0.25)"/>
</clipPath>
</defs>
</svg>
