<svg width="22" height="23" viewBox="0 0 22 23" fill="none" xmlns="http://www.w3.org/2000/svg">
<g clip-path="url(#clip0_5016_1801)">
<path d="M11 3.69922C6.57486 3.69922 3 7.27408 3 11.6992C3 15.2238 5.30057 18.2249 8.47429 19.2992C8.87429 19.3746 9.02514 19.1244 9.02514 18.9244V17.5746C6.8 18.0489 6.32457 16.4992 6.32457 16.4992C5.94971 15.5735 5.42514 15.3244 5.42514 15.3244C4.70057 14.8238 5.47543 14.8489 5.47543 14.8489C6.27543 14.8992 6.69943 15.6741 6.69943 15.6741C7.42514 16.8992 8.57486 16.5495 9.02514 16.3484C9.10057 15.8238 9.29943 15.4741 9.52457 15.2741C7.74971 15.0741 5.87543 14.3746 5.87543 11.3244C5.87543 10.4489 6.17486 9.7495 6.69943 9.17465C6.62514 8.97465 6.34971 8.1495 6.77486 7.04893C6.77486 7.04893 7.44914 6.82379 8.97486 7.87408C9.62664 7.69549 10.2991 7.60327 10.9749 7.59979C11.6491 7.59979 12.3497 7.69922 12.9749 7.87408C14.5006 6.84893 15.1749 7.04893 15.1749 7.04893C15.6 8.1495 15.3246 8.97465 15.2503 9.17465C15.776 9.72322 16.0754 10.4489 16.0754 11.3232C16.0754 14.3986 14.2 15.0741 12.4251 15.2741C12.6994 15.5244 12.9749 15.9986 12.9749 16.7484V18.9495C12.9749 19.1746 13.1246 19.4238 13.5246 19.3244C16.7006 18.2238 19 15.2238 19 11.6992C19 7.27408 15.4251 3.69922 11 3.69922Z" fill="#666666"/>
</g>
<defs>
<clipPath id="clip0_5016_1801">
<rect width="16" height="16" fill="white" transform="translate(3 3.5)"/>
</clipPath>
</defs>
</svg>
