<svg width="13" height="13" viewBox="0 0 13 13" fill="none" xmlns="http://www.w3.org/2000/svg">
<g clip-path="url(#clip0_1_427)">
<path d="M1.50015 6.5H3.00015C3.26537 6.5 3.51972 6.60536 3.70726 6.79289C3.8948 6.98043 4.00015 7.23478 4.00015 7.5V9C4.00015 9.26522 3.8948 9.51957 3.70726 9.70711C3.51972 9.89464 3.26537 10 3.00015 10H2.50015C2.23494 10 1.98058 9.89464 1.79305 9.70711C1.60551 9.51957 1.50015 9.26522 1.50015 9V6.5ZM1.50015 6.5C1.50015 5.90905 1.61655 5.32389 1.84269 4.77792C2.06884 4.23196 2.40031 3.73588 2.81817 3.31802C3.23604 2.90016 3.73211 2.56869 4.27808 2.34254C4.82404 2.1164 5.4092 2 6.00015 2C6.5911 2 7.17626 2.1164 7.72223 2.34254C8.26819 2.56869 8.76427 2.90016 9.18213 3.31802C9.6 3.73588 9.93146 4.23196 10.1576 4.77792C10.3838 5.32389 10.5002 5.90905 10.5002 6.5M10.5002 6.5V9C10.5002 9.26522 10.3948 9.51957 10.2073 9.70711C10.0197 9.89464 9.76537 10 9.50015 10H9.00015C8.73494 10 8.48058 9.89464 8.29305 9.70711C8.10551 9.51957 8.00015 9.26522 8.00015 9V7.5C8.00015 7.23478 8.10551 6.98043 8.29305 6.79289C8.48058 6.60536 8.73494 6.5 9.00015 6.5H10.5002Z" stroke="#666666" stroke-linecap="round" stroke-linejoin="round"/>
<path d="M10.5002 9V10C10.5002 10.5304 10.2894 11.0391 9.91437 11.4142C9.53929 11.7893 9.03059 12 8.50015 12H6.00015" stroke="#666666" stroke-linecap="round" stroke-linejoin="round"/>
</g>
<defs>
<clipPath id="clip0_1_427">
<rect width="12.8" height="12.5" fill="white" transform="matrix(1 0 0 -1 0.0899963 13)"/>
</clipPath>
</defs>
</svg>
