<svg width="25" height="24" viewBox="0 0 25 24" fill="none" xmlns="http://www.w3.org/2000/svg">
<path d="M20.5 3H15.5C14.9477 3 14.5 3.44772 14.5 4V9C14.5 9.55228 14.9477 10 15.5 10H20.5C21.0523 10 21.5 9.55228 21.5 9V4C21.5 3.44772 21.0523 3 20.5 3Z" stroke="#666666" stroke-width="2" stroke-linecap="round" stroke-linejoin="round"/>
<path d="M10.5 21V8C10.5 7.73478 10.3946 7.48043 10.2071 7.29289C10.0196 7.10536 9.76522 7 9.5 7H4.5C4.23478 7 3.98043 7.10536 3.79289 7.29289C3.60536 7.48043 3.5 7.73478 3.5 8V20C3.5 20.2652 3.60536 20.5196 3.79289 20.7071C3.98043 20.8946 4.23478 21 4.5 21H16.5C16.7652 21 17.0196 20.8946 17.2071 20.7071C17.3946 20.5196 17.5 20.2652 17.5 20V15C17.5 14.7348 17.3946 14.4804 17.2071 14.2929C17.0196 14.1054 16.7652 14 16.5 14H3.5" stroke="#666666" stroke-width="2" stroke-linecap="round" stroke-linejoin="round"/>
</svg>
