<svg width="13" height="15" viewBox="0 0 13 15" fill="none" xmlns="http://www.w3.org/2000/svg">
<path fill-rule="evenodd" clip-rule="evenodd" d="M8.5 4.31982V5.81982H4.5V4.31982C4.5 3.21525 5.39543 2.31982 6.5 2.31982C7.60457 2.31982 8.5 3.21525 8.5 4.31982ZM3 5.81982V4.31982C3 2.38682 4.567 0.819824 6.5 0.819824C8.433 0.819824 10 2.38682 10 4.31982V5.81982H11H12.5V7.31982V12.3198C12.5 13.7005 11.3807 14.8198 10 14.8198H3C1.61929 14.8198 0.5 13.7005 0.5 12.3198V7.31982V5.81982H2H3ZM10 7.31982H8.5H4.5H3H2V12.3198C2 12.8721 2.44772 13.3198 3 13.3198H10C10.5523 13.3198 11 12.8721 11 12.3198V7.31982H10Z" fill="#171717"/>
</svg>
