<svg width="28" height="26" viewBox="0 0 28 26" fill="none" xmlns="http://www.w3.org/2000/svg">
<path fill-rule="evenodd" clip-rule="evenodd" d="M15.0757 1.25854C15.0257 1.13004 14.9136 1.03576 14.7784 1.00819C14.6431 0.980643 14.5032 1.02356 14.4066 1.12218L7.15076 8.53803C7.01586 8.67592 6.99665 8.88957 7.10478 9.04926C7.21293 9.20896 7.41859 9.27062 7.59685 9.19679L13.8403 6.61167L20.3697 17.0464C20.481 17.2241 20.7091 17.288 20.8966 17.194C21.084 17.1 21.1691 16.8791 21.0928 16.6839L15.0757 1.25854ZM11.1195 11.352C11.2244 11.1715 11.1751 10.9408 11.0055 10.8188C10.836 10.6968 10.6014 10.7232 10.4633 10.8798L0.601467 22.061C0.506803 22.1683 0.475679 22.3176 0.519534 22.4537C0.563388 22.5899 0.675741 22.6929 0.81529 22.725L10.6771 24.9896C10.8647 25.0328 11.0567 24.9384 11.1372 24.7637C11.2177 24.5891 11.1644 24.3819 11.0096 24.2676L5.83516 20.4455L11.1195 11.352ZM24.216 14.0102C24.152 13.8222 23.9612 13.7083 23.765 13.7406C23.569 13.7732 23.4251 13.9425 23.4251 14.1412V20.5126L11.389 20.7481C11.1789 20.7522 11.0066 20.9156 10.9916 21.1251C10.9767 21.3345 11.1241 21.5207 11.3315 21.5546L27.0282 24.1117C27.1691 24.1347 27.3118 24.0821 27.4039 23.9732C27.4961 23.8643 27.5244 23.7152 27.4782 23.5802L24.216 14.0102Z" fill="#131316" stroke="#131316" stroke-width="0.2" stroke-linecap="round" stroke-linejoin="round"/>
</svg>
