<svg width="16" height="17" viewBox="0 0 16 17" fill="none" xmlns="http://www.w3.org/2000/svg">
<g clip-path="url(#clip0_5016_1785)">
<path fill-rule="evenodd" clip-rule="evenodd" d="M5.82804 2.12304C3.30641 3.01676 1.5 5.42338 1.5 8.25144C1.5 11.8412 4.41015 14.7514 8 14.7514C10.8282 14.7514 13.2348 12.9449 14.1285 10.4231C13.3293 10.794 12.4386 11.0012 11.5 11.0012C8.04822 11.0012 5.25 8.20306 5.25 4.75128C5.25 3.81278 5.45718 2.92212 5.82804 2.12304ZM0 8.25144C0 4.03402 3.26298 0.579416 7.40265 0.273438L8.009 1.53015C7.22684 2.37735 6.75 3.50778 6.75 4.75128C6.75 7.37463 8.87665 9.50128 11.5 9.50128C12.7436 9.50128 13.8741 9.02438 14.7213 8.24213L15.978 8.84842C15.6722 12.9882 12.2175 16.2514 8 16.2514C3.58172 16.2514 0 12.6697 0 8.25144Z" fill="#666666"/>
</g>
<defs>
<clipPath id="clip0_5016_1785">
<rect width="16" height="16" fill="white" transform="translate(0 0.25)"/>
</clipPath>
</defs>
</svg>
