<svg width="72" height="85" viewBox="0 0 72 85" fill="none" xmlns="http://www.w3.org/2000/svg">
<g opacity="0.7">
<g clip-path="url(#clip0_5016_1321)">
<rect y="0.5" width="72" height="84" rx="4" fill="url(#paint0_radial_5016_1321)" fill-opacity="0.5"/>
<g clip-path="url(#clip1_5016_1321)">
<g clip-path="url(#clip2_5016_1321)">
<path d="M22.6328 70.3069V43.582L47.1724 70.3069H22.6328Z" fill="url(#paint1_linear_5016_1321)"/>
<path d="M43.7157 57.3722C47.772 57.3722 51.0603 54.1125 51.0603 50.0914C51.0603 46.0703 47.772 42.8105 43.7157 42.8105C39.6594 42.8105 36.3711 46.0703 36.3711 50.0914C36.3711 54.1125 39.6594 57.3722 43.7157 57.3722Z" fill="#D81222"/>
<path d="M22.6328 43.5815V70.3064L47.1724 15.4004L22.6328 43.5815Z" fill="#D81222"/>
</g>
</g>
</g>
</g>
<defs>
<radialGradient id="paint0_radial_5016_1321" cx="0" cy="0" r="1" gradientUnits="userSpaceOnUse" gradientTransform="translate(35.4744 -7.4968) scale(173.678 134.996)">
<stop stop-color="#6C47FF" stop-opacity="0.3"/>
<stop offset="0.4124" stop-color="#FFF963" stop-opacity="0.24"/>
<stop offset="0.6234" stop-color="#38DAFD" stop-opacity="0.18"/>
<stop offset="0.9189" stop-color="#6248F6" stop-opacity="0"/>
</radialGradient>
<linearGradient id="paint1_linear_5016_1321" x1="47.1403" y1="56.9452" x2="22.5947" y2="56.9452" gradientUnits="userSpaceOnUse">
<stop stop-color="#D81222"/>
<stop offset="1" stop-color="#960B1A"/>
</linearGradient>
<clipPath id="clip0_5016_1321">
<rect y="0.5" width="72" height="84" rx="4" fill="white"/>
</clipPath>
<clipPath id="clip1_5016_1321">
<rect width="72" height="84" fill="white" transform="translate(0 0.5)"/>
</clipPath>
<clipPath id="clip2_5016_1321">
<rect width="30" height="59" fill="white" transform="translate(21 13.7812)"/>
</clipPath>
</defs>
</svg>
