<svg width="11" height="17" viewBox="0 0 11 17" fill="none" xmlns="http://www.w3.org/2000/svg">
<path fill-rule="evenodd" clip-rule="evenodd" d="M2.75 0.5C1.23122 0.5 0 1.73122 0 3.25V13.75C0 15.2688 1.23122 16.5 2.75 16.5H8.25C9.7688 16.5 11 15.2688 11 13.75V3.25C11 1.73122 9.7688 0.5 8.25 0.5H2.75ZM1.5 3.25C1.5 2.55964 2.05964 2 2.75 2H8.25C8.9404 2 9.5 2.55964 9.5 3.25V13.75C9.5 14.4404 8.9404 15 8.25 15H2.75C2.05964 15 1.5 14.4404 1.5 13.75V3.25ZM3.75 5.25C4.30228 5.25 4.75 4.80228 4.75 4.25C4.75 3.69772 4.30228 3.25 3.75 3.25C3.19772 3.25 2.75 3.69772 2.75 4.25C2.75 4.80228 3.19772 5.25 3.75 5.25Z" fill="#171717"/>
</svg>
