<svg width="16" height="17" viewBox="0 0 16 17" fill="none" xmlns="http://www.w3.org/2000/svg">
<g clip-path="url(#clip0_5016_1789)">
<path fill-rule="evenodd" clip-rule="evenodd" d="M8.75 1V0.25H7.25V1V2.25V3H8.75V2.25V1ZM11.182 4.00732L11.7123 3.47699L12.0659 3.12344L12.5962 2.59311L13.6569 3.65377L13.1265 4.1841L12.773 4.53765L12.2426 5.06798L11.182 4.00732ZM8 10.75C9.38071 10.75 10.5 9.63071 10.5 8.25C10.5 6.86929 9.38071 5.75 8 5.75C6.61929 5.75 5.5 6.86929 5.5 8.25C5.5 9.63071 6.61929 10.75 8 10.75ZM8 12.25C10.2091 12.25 12 10.4591 12 8.25C12 6.04086 10.2091 4.25 8 4.25C5.79086 4.25 4 6.04086 4 8.25C4 10.4591 5.79086 12.25 8 12.25ZM13.25 7.5H14H15.25H16V9H15.25H14H13.25V7.5ZM0.75 7.5H0V9H0.75H2H2.75V7.5H2H0.75ZM2.87348 12.3159L2.34315 12.8462L3.40381 13.9069L3.93414 13.3765L4.28769 13.023L4.81802 12.4926L3.75736 11.432L3.22703 11.9623L2.87348 12.3159ZM3.75735 5.06798L3.22702 4.53765L2.87347 4.1841L2.34314 3.65377L3.4038 2.59311L3.93413 3.12344L4.28768 3.47699L4.81802 4.00732L3.75735 5.06798ZM12.0659 13.3765L12.5962 13.9069L13.6569 12.8462L13.1265 12.3159L12.773 11.9623L12.2426 11.432L11.182 12.4926L11.7123 13.023L12.0659 13.3765ZM8.75 13.5V14.25V15.5V16.25H7.25V15.5V14.25V13.5H8.75Z" fill="#171717"/>
</g>
<defs>
<clipPath id="clip0_5016_1789">
<rect width="16" height="16" fill="white" transform="translate(0 0.25)"/>
</clipPath>
</defs>
</svg>
