<svg width="17" height="17" viewBox="0 0 17 17" fill="none" xmlns="http://www.w3.org/2000/svg">
<g clip-path="url(#clip0_5016_519)">
<path fill-rule="evenodd" clip-rule="evenodd" d="M3.25 0.5C2.2835 0.5 1.5 1.2835 1.5 2.25V14.75C1.5 15.7165 2.2835 16.5 3.25 16.5H13.75C14.7165 16.5 15.5 15.7165 15.5 14.75V2.25C15.5 1.2835 14.7165 0.5 13.75 0.5H3.25ZM3 2.25C3 2.11193 3.11193 2 3.25 2H13.75C13.8881 2 14 2.11193 14 2.25V14.75C14 14.8881 13.8881 15 13.75 15H3.25C3.11193 15 3 14.8881 3 14.75V2.25ZM5.25 5.25C5.80228 5.25 6.25 4.80228 6.25 4.25C6.25 3.69772 5.80228 3.25 5.25 3.25C4.69772 3.25 4.25 3.69772 4.25 4.25C4.25 4.80228 4.69772 5.25 5.25 5.25Z" fill="#171717"/>
</g>
<defs>
<clipPath id="clip0_5016_519">
<rect width="16" height="16" fill="white" transform="translate(0.5 0.5)"/>
</clipPath>
</defs>
</svg>
