<svg width="72" height="85" viewBox="0 0 72 85" fill="none" xmlns="http://www.w3.org/2000/svg">
<g opacity="0.7">
<g clip-path="url(#clip0_5016_1350)">
<rect y="0.5" width="72" height="84" rx="4" fill="url(#paint0_radial_5016_1350)" fill-opacity="0.5"/>
<g clip-path="url(#clip1_5016_1350)">
<path d="M14 22.5C28.7023 22.5 43.2977 22.5 58 22.5C58 35.8333 58 49.1125 58 62.5C43.3512 62.5 28.7023 62.5 14 62.5C14 49.1667 14 35.8875 14 22.5ZM37.8979 50.3049V34.9661H32.5516V53.9905C32.5516 53.9905 41.373 54.1531 45.4362 53.9905C49.1252 53.8821 51.5844 51.7141 52.5468 48.1369C53.5626 44.2886 53.616 40.3862 52.7072 36.4837C52.1191 33.9363 50.6756 31.8767 48.0559 31.0637C46.7728 30.6843 45.4362 30.4675 44.0996 30.4675C35.8663 30.4133 18.4374 30.4675 18.4374 30.4675V33.9363C18.4374 33.9363 25.3341 33.9363 25.9757 33.9363C25.9757 34.3157 25.9757 34.5325 25.9757 34.8035C25.9757 39.1938 25.9757 53.9905 25.9757 53.9905H31.2151V33.9363C31.2151 33.9363 39.0741 33.9363 42.6027 33.9363C45.1689 33.9363 46.5055 35.0203 47.0936 37.5136C47.6817 39.8442 47.6282 42.229 47.4143 44.5596C47.3074 45.8062 46.9332 47.0528 46.5589 48.2453C46.1312 49.3835 45.2224 50.1965 43.9927 50.3591C41.7473 50.3049 37.8979 50.3049 37.8979 50.3049Z" fill="#00B625"/>
</g>
</g>
</g>
<defs>
<radialGradient id="paint0_radial_5016_1350" cx="0" cy="0" r="1" gradientUnits="userSpaceOnUse" gradientTransform="translate(35.4744 -7.4968) scale(173.678 134.996)">
<stop stop-color="#6C47FF" stop-opacity="0.3"/>
<stop offset="0.4124" stop-color="#FFF963" stop-opacity="0.24"/>
<stop offset="0.6234" stop-color="#38DAFD" stop-opacity="0.18"/>
<stop offset="0.9189" stop-color="#6248F6" stop-opacity="0"/>
</radialGradient>
<clipPath id="clip0_5016_1350">
<rect y="0.5" width="72" height="84" rx="4" fill="white"/>
</clipPath>
<clipPath id="clip1_5016_1350">
<rect width="72" height="84" fill="white" transform="translate(0 0.5)"/>
</clipPath>
</defs>
</svg>
