<svg width="36" height="37" viewBox="0 0 36 37" fill="none" xmlns="http://www.w3.org/2000/svg">
<path d="M17.9998 1.92422C26.9468 1.92422 34.1998 9.17721 34.1998 18.1242C34.1998 27.0712 26.9468 34.3242 17.9998 34.3242C9.05279 34.3242 1.7998 27.0712 1.7998 18.1242C1.7998 9.17721 9.05279 1.92422 17.9998 1.92422Z" fill="#F47421"/>
<path d="M17.9996 10.2684C22.3389 10.2684 25.8566 13.7861 25.8566 18.1254C25.8566 22.4647 22.3389 25.9824 17.9996 25.9824C13.6603 25.9824 10.1426 22.4647 10.1426 18.1254C10.1426 13.7861 13.6603 10.2684 17.9996 10.2684Z" stroke="white" stroke-width="4"/>
<path d="M6.98382 15.087C8.66141 15.087 10.0214 16.447 10.0214 18.1246C10.0214 19.8022 8.66141 21.1621 6.98382 21.1621C5.30624 21.1621 3.94629 19.8022 3.94629 18.1246C3.94629 16.447 5.30624 15.087 6.98382 15.087Z" fill="#F47421"/>
<path d="M24.1201 18.125H27.7201H24.1201Z" fill="black"/>
<path d="M24.1201 18.125H27.7201" stroke="#F47421" stroke-width="3.2378"/>
<path d="M6.98385 15.9619C8.17826 15.9619 9.14653 16.9302 9.14653 18.1246C9.14653 19.319 8.17826 20.2873 6.98385 20.2873C5.78943 20.2873 4.82117 19.319 4.82117 18.1246C4.82117 16.9302 5.78943 15.9619 6.98385 15.9619Z" fill="white"/>
<path d="M20.8773 29.1843C20.0385 27.7315 20.5363 25.8737 21.9891 25.0349C23.4419 24.1962 25.2997 24.6939 26.1385 26.1468C26.9773 27.5996 26.4795 29.4573 25.0266 30.2961C23.5738 31.1349 21.7161 30.6371 20.8773 29.1843Z" fill="#F47421"/>
<path d="M14.9395 12.8262L13.1395 9.70848L14.9395 12.8262Z" fill="black"/>
<path d="M14.9395 12.8262L13.1395 9.70848" stroke="#F47421" stroke-width="3.2378"/>
<path d="M21.6349 28.7469C21.0377 27.7125 21.3921 26.3898 22.4265 25.7926C23.4609 25.1954 24.7836 25.5498 25.3808 26.5842C25.978 27.6186 25.6236 28.9413 24.5892 29.5385C23.5548 30.1357 22.2322 29.7813 21.6349 28.7469Z" fill="white"/>
<path d="M26.1389 10.1037C25.3001 11.5565 23.4424 12.0543 21.9895 11.2155C20.5367 10.3767 20.0389 8.51896 20.8777 7.06613C21.7165 5.6133 23.5742 5.11552 25.0271 5.95431C26.4799 6.79311 26.9777 8.65083 26.1389 10.1037Z" fill="#F47421"/>
<path d="M14.9404 23.4258L13.1404 26.5435L14.9404 23.4258Z" fill="black"/>
<path d="M14.9404 23.4258L13.1404 26.5435" stroke="#F47421" stroke-width="3.2378"/>
<path d="M25.3812 9.66623C24.784 10.7006 23.4613 11.055 22.4269 10.4578C21.3925 9.86062 21.0381 8.53795 21.6353 7.50355C22.2325 6.46916 23.5552 6.11475 24.5896 6.71196C25.624 7.30916 25.9784 8.63184 25.3812 9.66623Z" fill="white"/>
</svg>
