<svg width="14" height="13" viewBox="0 0 14 13" fill="none" xmlns="http://www.w3.org/2000/svg">
<g clip-path="url(#clip0_5016_613)">
<path d="M6.96377 10.1387C4.82002 10.1387 3.07488 8.39353 3.07488 6.24978C3.07488 4.10603 4.82002 2.36089 6.96377 2.36089C9.10752 2.36089 10.8527 4.10603 10.8527 6.24978C10.8527 8.39353 9.10752 10.1387 6.96377 10.1387ZM6.96377 11.1109C9.6471 11.1109 11.8249 8.93311 11.8249 6.24978C11.8249 3.56644 9.6471 1.38867 6.96377 1.38867C4.28044 1.38867 2.10266 3.56644 2.10266 6.24978C2.10266 8.93311 4.28044 11.1109 6.96377 11.1109ZM6.47766 6.24978V8.19422H7.44988V6.24978H8.90821L6.96377 4.30533L5.01932 6.24978H6.47766Z" fill="#1C77FF"/>
</g>
<defs>
<clipPath id="clip0_5016_613">
<rect width="13" height="12" fill="white" transform="translate(0.630005 0.25)"/>
</clipPath>
</defs>
</svg>
