<svg width="36" height="37" viewBox="0 0 36 37" fill="none" xmlns="http://www.w3.org/2000/svg">
<g clip-path="url(#clip0_5016_1462)">
<path d="M6 8.40696L15.3924 7.12043V16.1787H6M16.5237 6.93664L28.9679 5.125V16.0999H16.5237M6 17.1344H15.3924V26.2188L6 24.906M16.5237 17.2551H28.9679V28.125L16.5237 26.3659M35.9924 9.58847L37.7709 9.59897L40.5334 19.6024C40.7307 20.3008 40.8754 21.015 40.9649 21.7396C41.9278 17.6437 43.2432 13.6529 44.3587 9.60948L45.8978 9.61473L48.2762 18.2791C48.5735 19.4291 48.9602 20.5634 49.0786 21.7449C49.9468 17.649 51.1912 13.6581 52.1831 9.61473L53.9353 9.60685L50.0415 23.5224H48.1472L45.3322 13.5189C45.1743 12.9807 45.1085 12.4241 45.0586 11.8648C44.9849 12.3453 44.9165 12.8311 44.7955 13.301L41.9541 23.4882C41.3227 23.5224 40.6912 23.525 40.0598 23.5197L36.0082 9.60422M54.935 9.69349C54.9685 9.42844 55.1019 9.18607 55.3081 9.01573C55.5143 8.84538 55.7779 8.75988 56.045 8.7766C56.3122 8.79333 56.5629 8.91105 56.7462 9.10578C56.9295 9.30051 57.0315 9.55762 57.0315 9.82477C57.0315 10.0919 56.9295 10.349 56.7462 10.5438C56.5629 10.7385 56.3122 10.8562 56.045 10.8729C55.7779 10.8897 55.5143 10.8042 55.3081 10.6338C55.1019 10.4635 54.9685 10.2211 54.935 9.95605M55.1718 13.5268H56.7503V23.504H55.1718M61.0019 15.1337C61.9043 13.5321 64.009 12.7917 65.706 13.5321C67.0556 14.0572 67.5581 15.6168 67.6002 16.9453C67.6739 19.1298 67.6134 21.3169 67.6318 23.5014C67.1056 23.5014 66.5794 23.5014 66.0533 23.4987C66.0269 21.3983 66.1059 19.2978 66.0164 17.1974C65.9743 16.1576 65.5323 14.9079 64.3984 14.6427C62.7409 14.1438 61.0913 15.6325 61.0387 17.2683C60.9914 19.3425 61.0361 21.4245 61.0203 23.5014H59.4418V13.5268H61.0203L60.9993 15.1337M77.0347 8.8008H78.6132V23.504H77.0399L76.9952 21.9024C75.856 23.9451 72.8121 24.3967 71.0757 22.8817C69.8312 21.8131 69.4524 20.0724 69.5182 18.497C69.5313 16.9007 70.0575 15.2151 71.3335 14.1648C72.991 12.8048 75.9113 12.8836 77.0689 14.8816L77.0584 8.7903M73.6645 14.5928C72.4016 14.7924 71.5466 15.9424 71.3098 17.1317C70.9994 18.5653 71.0546 20.2299 71.9597 21.4377C72.9384 22.7347 75.0904 22.7636 76.1428 21.5374C76.8531 20.797 77.0584 19.7363 77.0636 18.7543C77.0715 17.7041 77.161 16.5226 76.4638 15.6562C75.8481 14.7818 74.7011 14.388 73.675 14.6059M84.6643 13.2932C86.0719 13.1697 87.6373 13.3903 88.6896 14.4064C89.8841 15.5091 90.2419 17.2158 90.1735 18.7648C90.1551 20.1695 89.6341 21.6005 88.6028 22.5719C86.4507 24.5253 82.4465 24.0947 81.0784 21.4114C80.005 19.1613 80.2207 16.0553 82.1834 14.3486C82.8858 13.7553 83.7751 13.4822 84.6564 13.2879M84.3723 14.7162C82.0571 15.4251 81.6625 18.4445 82.386 20.44C82.9648 22.2043 85.201 22.9868 86.8322 22.1623C87.924 21.6635 88.4213 20.4295 88.5265 19.3005C88.6449 17.9877 88.5397 16.4911 87.6057 15.4671C86.8164 14.5797 85.4799 14.3906 84.3697 14.7136M90.9785 13.5268H92.6255L94.5724 20.6684C94.7039 21.1147 94.7565 21.5768 94.8039 22.0389C95.5484 19.1771 96.4877 16.3677 97.3348 13.5321L98.7739 13.54C99.4974 16.3756 100.397 19.1587 100.997 22.0468C101.615 19.2112 102.497 16.4018 103.181 13.5925C103.707 13.5662 104.238 13.5583 104.77 13.5531L101.797 23.5303H100.16C99.4501 20.8259 98.5293 18.1741 97.9505 15.4435C97.2664 18.1741 96.3114 20.8259 95.53 23.5303H93.9515L90.9785 13.5531M108.606 13.2643C109.592 13.196 110.597 13.2905 111.526 13.6529C111.784 14.1412 111.584 14.7818 111.644 15.3332C110.539 14.6427 109.013 14.2042 107.803 14.9053C106.98 15.3516 106.94 16.6723 107.743 17.1632C108.892 17.9063 110.353 18.1006 111.373 19.0537C112.499 20.1354 112.226 22.2043 110.908 23.0183C109.303 24.037 107.198 23.9372 105.514 23.16L105.501 21.3957C106.696 22.3041 108.369 22.8082 109.816 22.1623C110.65 21.7422 110.692 20.4662 109.958 19.9306C108.808 19.0852 107.222 18.9513 106.222 17.8958C105.214 16.8823 105.396 15.0076 106.519 14.1675C107.098 13.6345 107.887 13.4743 108.624 13.2669M119.656 9.37843L120.208 9.29966V23.504H118.65L118.669 11.6627C117.677 12.3453 116.606 12.9334 115.433 13.259L115.451 11.6837C116.977 11.1664 118.372 10.3315 119.634 9.35742M125.97 9.35217C127.338 9.12374 128.864 9.6226 129.679 10.7831C130.837 12.411 130.942 14.5114 131 16.4281C130.961 18.4603 130.737 20.6553 129.437 22.3094C128.24 23.8768 125.78 24.2444 124.175 23.0918C122.873 22.1545 122.36 20.5187 122.131 18.9959C121.868 16.7458 121.894 14.3749 122.676 12.2482C123.17 10.791 124.391 9.54384 125.964 9.36005M125.722 10.77C124.32 11.3371 123.918 12.9912 123.723 14.3408C123.518 16.2154 123.47 18.1478 123.918 19.9857C124.141 20.8942 124.612 21.8578 125.515 22.2568C126.541 22.7715 127.909 22.3277 128.435 21.3195C129.295 19.8361 129.316 18.0638 129.329 16.3834C129.295 14.7556 129.229 13.0227 128.33 11.6049C127.796 10.7437 126.646 10.3971 125.715 10.77" fill="#0078D6"/>
</g>
<defs>
<clipPath id="clip0_5016_1462">
<rect width="36" height="36" fill="white" transform="translate(0 0.125)"/>
</clipPath>
</defs>
</svg>
